<?xml version="1.0"?>
<svg xmlns="http://www.w3.org/2000/svg" xmlns:xlink="http://www.w3.org/1999/xlink"
viewBox="0 0 256 256" width="51px" height="51px">
  <style type="text/css">
    @keyframes ld-pulse
{
  0% {
    animation-timing-function: cubic-bezier(0.0413,0.3905,0.5086,0.6902);
    transform: scale(1);
  }
  24.3% {
    animation-timing-function: cubic-bezier(0.2248,0.6332,0.5246,1);
    transform: scale(0.8458);
  }
  55% {
    animation-timing-function: cubic-bezier(0.3036,0.3393,0.655,0.6144);
    transform: scale(0.8022);
  }
  70.2% {
    animation-timing-function: cubic-bezier(0.4464,0.2728,0.5562,0.7288);
    transform: scale(0.8294);
  }
  82.3% {
    animation-timing-function: cubic-bezier(0.6826,0.1845,1,0.7358);
    transform: scale(0.869);
  }
  100% {
    transform: scale(1);
  }
}
.ld.ld-pulse {
  animation: ld-pulse 0.5s infinite;
}
    @keyframes ld-move {
      0% { transform: translate(0,0) }
      100% { transform: translate(256px,0) }
    }
  </style>
  <defs><g id="id-0.5497249011724992">
    
<!-- Generator: Adobe Illustrator 21.0.0, SVG Export Plug-In . SVG Version: 6.00 Build 0)  -->


<path fill="none" stroke="#000000" stroke-width="8" stroke-linecap="round" stroke-linejoin="round" stroke-miterlimit="10" d="
	M32,32L32,32c20.295,30.445,65.032,30.445,85.327,0l0,0l0.002,0.004c20.296,30.444,65.031,30.444,85.326-0.001L202.659,32
	l0.009,0.014c20.296,30.441,65.027,30.441,85.323,0L288,32"/>
<path fill="none" stroke="#000000" stroke-width="8" stroke-linecap="round" stroke-linejoin="round" stroke-miterlimit="10" d="
	M32,160L32,160c20.295,30.445,65.032,30.445,85.327,0l0,0l0.002,0.004c20.296,30.444,65.031,30.444,85.326-0.001l0.002-0.003
	l0.009,0.014c20.296,30.441,65.027,30.441,85.323,0L288,160"/>
<path fill="none" stroke="#777777" stroke-width="8" stroke-linecap="round" stroke-linejoin="round" stroke-miterlimit="10" d="
	M-32,96L-32,96c20.295,30.445,65.032,30.445,85.327,0l0,0l0.002,0.004c20.296,30.444,65.031,30.444,85.326-0.001L138.659,96
	l0.009,0.014c20.296,30.441,65.027,30.441,85.323,0L224,96"/>
<path fill="none" stroke="#777777" stroke-width="8" stroke-linecap="round" stroke-linejoin="round" stroke-miterlimit="10" d="
	M-32,224L-32,224c20.295,30.445,65.032,30.445,85.327,0l0,0l0,0.001c20.297,30.445,65.034,30.445,85.33-0.001l0,0l0.007,0.011
	c20.297,30.442,65.031,30.442,85.327,0L224,224"/>


  </g></defs>
  <rect x="0" y="0" transform="matrix(4.492057e-11 -1 1 4.492057e-11 -2.803278e-06 256)" fill="#F1F2F3" width="256" height="256"/>
  <g>
    <use xlink:href="#id-0.5497249011724992" x="-256" y="-256"/><use xlink:href="#id-0.5497249011724992" x="0" y="-256"/><use xlink:href="#id-0.5497249011724992" x="256" y="-256"/><use xlink:href="#id-0.5497249011724992" x="-256" y="0"/><use xlink:href="#id-0.5497249011724992" x="0" y="0"/><use xlink:href="#id-0.5497249011724992" x="256" y="0"/><use xlink:href="#id-0.5497249011724992" x="-256" y="256"/><use xlink:href="#id-0.5497249011724992" x="0" y="256"/><use xlink:href="#id-0.5497249011724992" x="256" y="256"/>
    <animateTransform attributeName="transform" type="translate"
    dur="4s" repeatCount="indefinite" keyTimes="0;1" values="0;256"/>
  </g>
</svg>